<?xml version="1.0" standalone="no"?>
<!DOCTYPE svg PUBLIC "-//W3C//DTD SVG 1.1//EN" "http://www.w3.org/Graphics/SVG/1.1/DTD/svg11.dtd">
<svg width="100%" height="100%" viewBox="0 0 200 24" version="1.1" xmlns="http://www.w3.org/2000/svg" xmlns:xlink="http://www.w3.org/1999/xlink" xml:space="preserve" style="fill-rule:evenodd;clip-rule:evenodd;stroke-linejoin:round;stroke-miterlimit:1.41421;">
    <g transform="matrix(1,0,0,1,0.012,0.84)">
        <g id="Layer1">
            <path d="M5.08,20L8.152,1.904L12.808,1.904L16.432,11.552L20.032,1.904L24.688,1.904L27.76,20L23.08,20L21.52,9.584L17.248,20L15.376,20L11.32,9.584L9.76,20L5.08,20Z" style="fill:white;fill-rule:nonzero;"/>
            <path d="M40.576,13.28L38.464,7.256L36.352,13.28L40.576,13.28ZM41.824,16.856L35.104,16.856L34.024,20L29.008,20L35.896,1.904L41.032,1.904L47.92,20L42.904,20L41.824,16.856Z" style="fill:white;fill-rule:nonzero;"/>
            <path d="M54.688,16.016L55.768,16.016C56.584,16.016 57.312,15.888 57.952,15.632C58.592,15.376 59.132,15.024 59.572,14.576C60.012,14.128 60.348,13.596 60.58,12.98C60.812,12.364 60.928,11.688 60.928,10.952C60.928,10.232 60.808,9.56 60.568,8.936C60.328,8.312 59.988,7.776 59.548,7.328C59.108,6.88 58.568,6.528 57.928,6.272C57.288,6.016 56.568,5.888 55.768,5.888L54.688,5.888L54.688,16.016ZM49.984,1.904L56.944,1.904C58.176,1.904 59.332,2.152 60.412,2.648C61.492,3.144 62.436,3.804 63.244,4.628C64.052,5.452 64.688,6.412 65.152,7.508C65.616,8.604 65.848,9.752 65.848,10.952C65.848,12.136 65.62,13.276 65.164,14.372C64.708,15.468 64.076,16.432 63.268,17.264C62.46,18.096 61.516,18.76 60.436,19.256C59.356,19.752 58.192,20 56.944,20L49.984,20L49.984,1.904Z" style="fill:white;fill-rule:nonzero;"/>
            <path d="M81.712,9.992L82.6,9.992C83.528,9.992 84.24,9.8 84.736,9.416C85.232,9.032 85.48,8.48 85.48,7.76C85.48,7.04 85.232,6.488 84.736,6.104C84.24,5.72 83.528,5.528 82.6,5.528L81.712,5.528L81.712,9.992ZM92.056,20L86.2,20L81.712,13.04L81.712,20L77.008,20L77.008,1.904L84.328,1.904C85.336,1.904 86.216,2.052 86.968,2.348C87.72,2.644 88.34,3.048 88.828,3.56C89.316,4.072 89.684,4.664 89.932,5.336C90.18,6.008 90.304,6.728 90.304,7.496C90.304,8.872 89.972,9.988 89.308,10.844C88.644,11.7 87.664,12.28 86.368,12.584L92.056,20Z" style="fill:white;fill-rule:nonzero;"/>
            <path d="M97.792,10.952C97.792,11.672 97.928,12.336 98.2,12.944C98.472,13.552 98.84,14.08 99.304,14.528C99.768,14.976 100.308,15.324 100.924,15.572C101.54,15.82 102.192,15.944 102.88,15.944C103.568,15.944 104.22,15.82 104.836,15.572C105.452,15.324 105.996,14.976 106.468,14.528C106.94,14.08 107.312,13.552 107.584,12.944C107.856,12.336 107.992,11.672 107.992,10.952C107.992,10.232 107.856,9.568 107.584,8.96C107.312,8.352 106.94,7.824 106.468,7.376C105.996,6.928 105.452,6.58 104.836,6.332C104.22,6.084 103.568,5.96 102.88,5.96C102.192,5.96 101.54,6.084 100.924,6.332C100.308,6.58 99.768,6.928 99.304,7.376C98.84,7.824 98.472,8.352 98.2,8.96C97.928,9.568 97.792,10.232 97.792,10.952ZM92.872,10.952C92.872,9.608 93.12,8.356 93.616,7.196C94.112,6.036 94.8,5.024 95.68,4.16C96.56,3.296 97.612,2.62 98.836,2.132C100.06,1.644 101.408,1.4 102.88,1.4C104.336,1.4 105.68,1.644 106.912,2.132C108.144,2.62 109.204,3.296 110.092,4.16C110.98,5.024 111.672,6.036 112.168,7.196C112.664,8.356 112.912,9.608 112.912,10.952C112.912,12.296 112.664,13.548 112.168,14.708C111.672,15.868 110.98,16.88 110.092,17.744C109.204,18.608 108.144,19.284 106.912,19.772C105.68,20.26 104.336,20.504 102.88,20.504C101.408,20.504 100.06,20.26 98.836,19.772C97.612,19.284 96.56,18.608 95.68,17.744C94.8,16.88 94.112,15.868 93.616,14.708C93.12,13.548 92.872,12.296 92.872,10.952Z" style="fill:white;fill-rule:nonzero;"/>
            <path d="M128.92,7.952C127.832,6.624 126.488,5.96 124.888,5.96C124.184,5.96 123.532,6.088 122.932,6.344C122.332,6.6 121.816,6.948 121.384,7.388C120.952,7.828 120.612,8.352 120.364,8.96C120.116,9.568 119.992,10.224 119.992,10.928C119.992,11.648 120.116,12.312 120.364,12.92C120.612,13.528 120.956,14.056 121.396,14.504C121.836,14.952 122.352,15.304 122.944,15.56C123.536,15.816 124.176,15.944 124.864,15.944C126.368,15.944 127.72,15.304 128.92,14.024L128.92,19.592L128.44,19.76C127.72,20.016 127.048,20.204 126.424,20.324C125.8,20.444 125.184,20.504 124.576,20.504C123.328,20.504 122.132,20.268 120.988,19.796C119.844,19.324 118.836,18.66 117.964,17.804C117.092,16.948 116.392,15.932 115.864,14.756C115.336,13.58 115.072,12.296 115.072,10.904C115.072,9.512 115.332,8.236 115.852,7.076C116.372,5.916 117.068,4.916 117.94,4.076C118.812,3.236 119.824,2.58 120.976,2.108C122.128,1.636 123.336,1.4 124.6,1.4C125.32,1.4 126.028,1.476 126.724,1.628C127.42,1.78 128.152,2.016 128.92,2.336L128.92,7.952Z" style="fill:white;fill-rule:nonzero;"/>
            <path d="M137.368,9.368L143.104,1.904L148.912,1.904L141.736,10.472L149.584,20L143.488,20L137.368,12.152L137.368,20L132.664,20L132.664,1.904L137.368,1.904L137.368,9.368Z" style="fill:white;fill-rule:nonzero;"/>
            <path d="M161.968,5.888L156.376,5.888L156.376,8.912L161.656,8.912L161.656,12.896L156.376,12.896L156.376,16.016L161.968,16.016L161.968,20L151.672,20L151.672,1.904L161.968,1.904L161.968,5.888Z" style="fill:white;fill-rule:nonzero;"/>
            <path d="M170.056,9.992L170.944,9.992C171.872,9.992 172.584,9.8 173.08,9.416C173.576,9.032 173.824,8.48 173.824,7.76C173.824,7.04 173.576,6.488 173.08,6.104C172.584,5.72 171.872,5.528 170.944,5.528L170.056,5.528L170.056,9.992ZM180.4,20L174.544,20L170.056,13.04L170.056,20L165.352,20L165.352,1.904L172.672,1.904C173.68,1.904 174.56,2.052 175.312,2.348C176.064,2.644 176.684,3.048 177.172,3.56C177.66,4.072 178.028,4.664 178.276,5.336C178.524,6.008 178.648,6.728 178.648,7.496C178.648,8.872 178.316,9.988 177.652,10.844C176.988,11.7 176.008,12.28 174.712,12.584L180.4,20Z" style="fill:white;fill-rule:nonzero;"/>
            <path d="M192.304,6.536C191.792,6.12 191.28,5.812 190.768,5.612C190.256,5.412 189.76,5.312 189.28,5.312C188.672,5.312 188.176,5.456 187.792,5.744C187.408,6.032 187.216,6.408 187.216,6.872C187.216,7.192 187.312,7.456 187.504,7.664C187.696,7.872 187.948,8.052 188.26,8.204C188.572,8.356 188.924,8.488 189.316,8.6C189.708,8.712 190.096,8.832 190.48,8.96C192.016,9.472 193.14,10.156 193.852,11.012C194.564,11.868 194.92,12.984 194.92,14.36C194.92,15.288 194.764,16.128 194.452,16.88C194.14,17.632 193.684,18.276 193.084,18.812C192.484,19.348 191.748,19.764 190.876,20.06C190.004,20.356 189.016,20.504 187.912,20.504C185.624,20.504 183.504,19.824 181.552,18.464L183.568,14.672C184.272,15.296 184.968,15.76 185.656,16.064C186.344,16.368 187.024,16.52 187.696,16.52C188.464,16.52 189.036,16.344 189.412,15.992C189.788,15.64 189.976,15.24 189.976,14.792C189.976,14.52 189.928,14.284 189.832,14.084C189.736,13.884 189.576,13.7 189.352,13.532C189.128,13.364 188.836,13.208 188.476,13.064C188.116,12.92 187.68,12.76 187.168,12.584C186.56,12.392 185.964,12.18 185.38,11.948C184.796,11.716 184.276,11.408 183.82,11.024C183.364,10.64 182.996,10.156 182.716,9.572C182.436,8.988 182.296,8.248 182.296,7.352C182.296,6.456 182.444,5.644 182.74,4.916C183.036,4.188 183.452,3.564 183.988,3.044C184.524,2.524 185.18,2.12 185.956,1.832C186.732,1.544 187.6,1.4 188.56,1.4C189.456,1.4 190.392,1.524 191.368,1.772C192.344,2.02 193.28,2.384 194.176,2.864L192.304,6.536Z" style="fill:white;fill-rule:nonzero;"/>
        </g>
    </g>
</svg>
